HIERARCHY
ROOT Hips
{
	OFFSET 0.00000 0.00000 0.00000
	CHANNELS 6 Xposition Yposition Zposition Zrotation Yrotation Xrotation 
	JOINT LHipJoint
	{
		OFFSET 0 0 0
		CHANNELS 3 Zrotation Yrotation Xrotation
		JOINT LeftUpLeg
		{
			OFFSET 1.54859 -1.61379 0.86856
			CHANNELS 3 Zrotation Yrotation Xrotation
			JOINT LeftLeg
			{
				OFFSET 2.25087 -6.18423 0.00000
				CHANNELS 3 Zrotation Yrotation Xrotation
				JOINT LeftFoot
				{
					OFFSET 2.40328 -6.60297 0.00000
					CHANNELS 3 Zrotation Yrotation Xrotation
					JOINT LeftToeBase
					{
						OFFSET 0.17435 -0.47901 2.02453
						CHANNELS 3 Zrotation Yrotation Xrotation
						End Site
						{
							OFFSET 0.00000 -0.00000 1.04844
						}
					}
				}
			}
		}
	}
	JOINT RHipJoint
	{
		OFFSET 0 0 0
		CHANNELS 3 Zrotation Yrotation Xrotation
		JOINT RightUpLeg
		{
			OFFSET -1.54669 -1.61379 0.86856
			CHANNELS 3 Zrotation Yrotation Xrotation
			JOINT RightLeg
			{
				OFFSET -2.28132 -6.26789 0.00000
				CHANNELS 3 Zrotation Yrotation Xrotation
				JOINT RightFoot
				{
					OFFSET -2.51636 -6.91365 0.00000
					CHANNELS 3 Zrotation Yrotation Xrotation
					JOINT RightToeBase
					{
						OFFSET -0.15124 -0.41552 2.21090
						CHANNELS 3 Zrotation Yrotation Xrotation
						End Site
						{
							OFFSET -0.00000 -0.00000 1.13399
						}
					}
				}
			}
		}
	}
	JOINT LowerBack
	{
		OFFSET 0 0 0
		CHANNELS 3 Zrotation Yrotation Xrotation
		JOINT Spine
		{
			OFFSET -0.04287 2.26161 -0.25690
			CHANNELS 3 Zrotation Yrotation Xrotation
			JOINT Spine1
			{
				OFFSET 0.02248 2.28395 -0.10140
				CHANNELS 3 Zrotation Yrotation Xrotation
				JOINT Neck
				{
					OFFSET 0 0 0
					CHANNELS 3 Zrotation Yrotation Xrotation
					JOINT Neck1
					{
						OFFSET -0.11644 1.38496 0.11345
						CHANNELS 3 Zrotation Yrotation Xrotation
						JOINT Head
						{
							OFFSET 0.29383 1.36600 0.06642
							CHANNELS 3 Zrotation Yrotation Xrotation
							End Site
							{
								OFFSET 0.11075 1.41395 -0.00294
							}
						}
					}
				}
				JOINT LeftShoulder
				{
					OFFSET 0 0 0
					CHANNELS 3 Zrotation Yrotation Xrotation
					JOINT LeftArm
					{
						OFFSET 3.51628 0.59542 -0.30346
						CHANNELS 3 Zrotation Yrotation Xrotation
						JOINT LeftForeArm
						{
							OFFSET 4.76405 -0.00000 0.00000
							CHANNELS 3 Zrotation Yrotation Xrotation
							JOINT LeftHand
							{
								OFFSET 3.13759 -0.00000 -0.00000
								CHANNELS 3 Zrotation Yrotation Xrotation
								JOINT LeftFingerBase
								{
									OFFSET 0 0 0
									CHANNELS 3 Zrotation Yrotation Xrotation
									JOINT LeftHandIndex1
									{
										OFFSET 0.73226 -0.00000 -0.00000
										CHANNELS 3 Zrotation Yrotation Xrotation
										End Site
										{
											OFFSET 0.59037 -0.00000 -0.00000
										}
									}
								}
								JOINT LThumb
								{
									OFFSET 0 0 0
									CHANNELS 3 Zrotation Yrotation Xrotation
									End Site
									{
										OFFSET 0.59938 -0.00000 0.59938
									}
								}
							}
						}
					}
				}
				JOINT RightShoulder
				{
					OFFSET 0 0 0
					CHANNELS 3 Zrotation Yrotation Xrotation
					JOINT RightArm
					{
						OFFSET -3.30990 0.84213 -0.36430
						CHANNELS 3 Zrotation Yrotation Xrotation
						JOINT RightForeArm
						{
							OFFSET -5.10161 -0.00000 -0.00000
							CHANNELS 3 Zrotation Yrotation Xrotation
							JOINT RightHand
							{
								OFFSET -3.23267 -0.00000 -0.00000
								CHANNELS 3 Zrotation Yrotation Xrotation
								JOINT RightFingerBase
								{
									OFFSET 0 0 0
									CHANNELS 3 Zrotation Yrotation Xrotation
									JOINT RightHandIndex1
									{
										OFFSET -0.70200 -0.00000 -0.00000
										CHANNELS 3 Zrotation Yrotation Xrotation
										End Site
										{
											OFFSET -0.56597 -0.00000 -0.00000
										}
									}
								}
								JOINT RThumb
								{
									OFFSET 0 0 0
									CHANNELS 3 Zrotation Yrotation Xrotation
									End Site
									{
										OFFSET -0.57461 -0.00000 0.57461
									}
								}
							}
						}
					}
				}
			}
		}
	}
}
MOTION
Frames: 16
Frame Time: 0.0377358
0.00 0.00 0.00 2.6338 63.4704 20.5032 0.0000 0.0000 0.0000 -9.8882 -1.3402 -38.2758 23.5648 19.6926 100.4743 0.1886 -0.1617 -8.1457 0.8094 -5.7413 -16.0356 0.0000 0.0000 0.0000 29.6965 4.0633 -25.6611 -8.6566 -16.5816 54.8948 -3.3612 1.8795 -34.2933 -0.2269 3.0662 -8.4631 2.6569 0.2041 16.3048 3.7875 1.0886 8.6878 2.3058 0.6999 0.0731 -7.9014 -5.2456 -5.7359 14.9911 -4.0901 -22.4031 6.2413 -2.0691 -5.1372 -0.0000 0.0000 0.0000 -82.3080 30.9919 55.6828 18.2232 -28.4420 -4.6550 -0.0000 0.0000 -14.0128 16.7657 36.8477 10.2409 -7.1250 0.0000 -0.0000 -23.2029 66.6476 -12.3847 -0.0000 0.0000 0.0000 64.3422 41.3637 23.5953 -92.0853 59.9836 -61.8058 0.0000 0.0000 28.2773 -22.9424 23.2321 -9.4792 7.1250 -0.0000 -0.0000 3.8193 -5.0353 3.4772
0.00 0.00 0.00 2.8457 62.1792 20.1561 0.0000 0.0000 0.0000 -8.0002 -4.6250 -44.5723 21.5423 19.9429 94.5136 0.3853 1.1795 -12.2126 0.4524 -4.3149 -11.9643 0.0000 0.0000 0.0000 28.3839 1.0136 -17.0253 -6.7995 -15.1607 48.1117 -2.6073 4.0966 -29.6017 -0.5545 4.7700 -13.2537 1.4169 2.1627 16.1127 3.1687 3.4197 8.6718 1.9866 1.8217 0.0747 -10.0974 -7.2801 -4.8267 18.6897 -6.4655 -22.2993 7.8429 -3.3373 -4.6491 -0.0000 -0.0000 0.0000 -77.2693 34.5307 59.3285 22.2680 -33.2786 -6.7323 -0.0000 0.0000 -18.8724 9.7192 33.8666 5.4521 -7.1250 0.0000 -0.0000 -27.6006 62.1017 -11.9686 -0.0000 -0.0000 0.0000 61.9216 40.6563 19.5404 -57.1450 55.4999 -31.9766 0.0000 0.0000 31.1151 -20.1753 22.2224 -7.9115 7.1250 -0.0000 -0.0000 5.4530 -6.5476 4.8181
0.00 0.00 0.00 7.4376 61.5804 23.1867 0.0000 0.0000 0.0000 -6.7445 -8.9283 -49.2380 14.6126 19.2894 74.0670 0.4505 -0.7948 -12.4268 0.6800 -5.2725 -14.6873 0.0000 0.0000 0.0000 23.8267 -4.5405 -1.8236 -3.5698 -11.5648 34.2092 -0.7704 6.2230 -15.6515 -0.2816 3.4133 -9.4315 -1.4203 5.3627 14.5811 1.4175 7.1742 8.8968 1.2938 3.6231 0.9296 -13.2812 -11.3376 -1.9130 25.5283 -11.4459 -23.3829 10.6582 -6.1762 -3.8313 -0.0000 -0.0000 0.0000 -68.1991 32.9077 62.4698 27.5683 -38.7157 -9.8525 -0.0000 0.0000 -22.8340 -6.3769 32.4784 -3.4344 -7.1250 0.0000 -0.0000 -41.8963 57.2438 -14.2349 -0.0000 -0.0000 0.0000 60.7884 41.2358 0.6721 -19.5853 30.1395 -5.3216 0.0000 0.0000 31.3996 -3.2104 8.2328 -0.4602 7.1250 -0.0000 -0.0000 16.9809 -21.8371 9.8781
0.00 0.00 0.00 9.2718 63.5358 23.7613 0.0000 0.0000 0.0000 -4.6856 -10.6142 -48.9831 8.2836 16.3240 53.5780 0.1653 -4.7212 -7.4630 1.3409 -7.3316 -20.7016 0.0000 0.0000 0.0000 24.2393 -5.6105 10.9603 -2.0653 -9.0008 25.7977 -0.2064 -2.6392 -9.9733 -0.3795 3.9565 -10.9542 -2.2740 7.3565 13.9194 0.6116 9.7112 8.9865 0.6569 4.8791 1.3105 -15.9104 -14.6867 0.2875 30.9924 -15.7830 -24.4938 12.7003 -8.6893 -2.6816 0.0000 -0.0000 0.0000 -62.6617 27.1355 62.3891 31.1616 -41.8685 -12.1775 -0.0000 0.0000 -24.3781 -8.3748 33.1520 -4.6028 -7.1250 0.0000 -0.0000 -44.3801 57.3215 -15.4095 0.0000 -0.0000 0.0000 60.8540 38.2359 -43.4431 -8.9642 15.1033 -1.1908 0.0000 0.0000 54.6850 -4.3478 11.5264 -0.8704 7.1250 -0.0000 -0.0000 15.8765 -18.6471 10.3716
0.00 0.00 0.00 5.4278 68.6099 19.8100 0.0000 0.0000 0.0000 -1.0392 -10.5545 -48.9911 4.4187 12.6976 38.2468 -0.1042 -7.4079 -2.3202 2.6531 -10.1112 -29.3375 0.0000 0.0000 0.0000 31.6102 -7.2556 14.5126 -3.4615 -11.4070 33.6653 0.1375 -8.9761 -9.8044 -1.0438 6.4972 -18.2342 -0.8712 7.1798 12.4097 0.4450 9.7203 9.3815 -0.0041 4.9563 2.7790 -17.5510 -16.1692 3.0069 36.4083 -16.9720 -28.2618 15.3438 -9.8431 -2.8991 0.0000 0.0000 0.0000 -63.0973 18.0672 55.1336 33.1795 -43.4676 -13.5454 -0.0000 0.0000 -23.8411 3.8405 32.1483 2.0458 -7.1250 0.0000 -0.0000 -31.8900 59.2273 -11.8245 0.0000 0.0000 0.0000 69.4039 26.8991 -32.6552 -13.8202 22.4770 -2.7590 0.0000 0.0000 23.8559 -6.8363 17.7928 -2.0980 7.1250 -0.0000 -0.0000 13.8783 -12.4475 10.8927
0.00 0.00 0.00 11.2226 71.5108 23.6482 0.0000 0.0000 0.0000 -4.0226 -9.9273 -46.5996 4.5018 12.7998 38.6235 -0.1224 -6.2863 1.1383 2.1457 -9.1632 -26.3070 0.0000 0.0000 0.0000 32.7167 -12.1098 8.1841 -8.5243 -16.4917 54.4300 0.0400 -9.4394 -12.7303 -0.7286 5.4537 -15.2074 -3.0621 5.5276 12.3657 -0.7493 7.4957 10.2169 0.2440 3.8038 3.6166 -17.6289 -16.2191 3.6636 39.1443 -16.5078 -29.3681 16.7625 -9.9114 -2.9827 -0.0000 0.0000 0.0000 -65.9096 10.4198 49.3342 33.5054 -43.7149 -13.7701 -0.0000 0.0000 -22.0210 18.7340 32.9855 10.4612 -7.1250 0.0000 -0.0000 -16.9595 63.6290 -7.7734 -0.0000 0.0000 0.0000 74.6180 21.5572 -19.6683 -19.2455 29.7226 -5.1520 0.0000 0.0000 2.0539 -10.2994 22.8228 -4.0319 7.1250 -0.0000 -0.0000 11.6647 -7.2135 10.3296
0.00 0.00 0.00 19.6463 70.4563 29.7907 0.0000 0.0000 0.0000 -7.9459 -8.7600 -41.0113 5.0828 13.4765 41.1794 -0.1542 -9.7269 -3.7138 3.3727 -11.2753 -33.2140 0.0000 0.0000 0.0000 29.0255 -15.3520 1.0692 -14.4553 -19.2464 73.5904 0.1234 -11.6568 -14.7344 -0.1404 2.4146 -6.6529 -6.5072 4.8975 13.6361 -2.4363 6.4134 10.6732 0.3889 3.1791 3.3619 -17.7537 -15.9704 3.6158 40.3561 -16.2231 -28.4810 17.2686 -9.8356 -2.5827 -0.0000 -0.0000 0.0000 -67.4211 4.1232 47.4693 34.6198 -44.5388 -14.5461 -0.0000 0.0000 -22.2873 27.8672 35.6110 17.1123 -7.1250 0.0000 -0.0000 -8.0226 68.8380 -4.5963 -0.0000 -0.0000 0.0000 77.0807 18.2743 -14.2889 -24.0848 35.2538 -7.7554 0.0000 -0.0000 -4.2080 -16.4233 27.0825 -7.6431 7.1250 -0.0000 -0.0000 8.1590 -2.1649 7.9267
0.00 0.00 0.00 22.9056 68.7312 31.2633 0.0000 0.0000 0.0000 -10.2587 -6.7917 -36.8503 6.3013 14.7141 46.1792 0.1041 -12.6904 -10.2132 3.4090 -11.3295 -33.3992 0.0000 0.0000 0.0000 25.2348 -16.9245 -7.3128 -20.7593 -19.9862 92.2205 -0.2717 -8.5722 -16.4346 -0.0000 -0.0371 0.1019 -8.2252 4.3196 15.8140 -3.4007 5.3120 10.7287 0.2856 2.6307 2.3327 -16.9456 -15.9425 3.1733 40.0745 -16.0501 -28.5643 17.0069 -9.7641 -2.7309 0.0000 0.0000 0.0000 -70.8929 -3.6371 45.9463 34.6928 -44.5916 -14.5973 -0.0000 0.0000 -20.1525 29.7240 35.5218 18.3520 -7.1250 0.0000 -0.0000 -5.3560 69.3327 -3.1242 0.0000 0.0000 0.0000 76.6253 15.9714 -11.3213 -29.6376 40.5807 -11.1731 0.0000 -0.0000 -9.4160 -23.4643 30.6939 -12.4933 7.1250 -0.0000 -0.0000 4.4682 2.8390 4.6981
0.00 0.00 0.00 27.6276 65.3893 34.3265 0.0000 0.0000 0.0000 -14.3039 -1.7692 -30.3779 6.8866 15.2357 48.4443 0.7211 -15.9538 -17.6173 3.9947 -12.1533 -36.2766 0.0000 0.0000 0.0000 18.7997 -16.1420 -21.6344 -27.4518 -18.6129 112.2838 -0.5869 -1.9210 -15.2933 -0.0038 0.3991 -1.0965 -12.1947 3.9570 18.1894 -3.7339 4.0684 10.9978 2.1519 1.8917 1.3975 -17.2488 -14.9168 2.8645 39.7239 -14.1911 -30.0636 17.5568 -8.7772 -3.6962 -0.0000 0.0000 0.0000 -79.0544 -16.1872 42.9572 34.5549 -44.4917 -14.5006 -0.0000 0.0000 -13.7038 28.0522 32.1444 15.8292 -7.1250 0.0000 -0.0000 -5.0833 65.3644 -2.5046 -0.0000 0.0000 0.0000 73.3917 15.7663 -9.8169 -39.8809 47.9992 -18.3507 0.0000 -0.0000 -18.1468 -28.6993 31.6201 -16.0150 7.1250 -0.0000 -0.0000 1.6644 5.0727 1.8058
0.00 0.00 0.00 26.6100 61.3357 34.8481 0.0000 0.0000 0.0000 -15.3113 7.5903 -8.9103 3.4142 11.3372 33.4256 0.0812 -19.3184 -14.2794 4.1374 -12.3410 -36.9491 0.0000 0.0000 0.0000 13.3351 -1.5411 -53.2858 -29.0120 -17.9292 117.2575 -0.7844 -0.7851 -17.0361 -0.1368 2.3842 -6.5688 -13.6686 -0.4743 17.8658 -3.1166 -2.2989 8.6603 4.7347 -1.2787 -0.0617 -16.3662 -10.0409 -0.5931 32.9404 -9.1315 -22.5467 14.2732 -5.3585 -3.3660 -0.0000 -0.0000 0.0000 -87.3513 -26.3122 38.1803 48.2884 -52.2814 -24.8136 -0.0000 0.0000 -11.0986 31.5852 22.8440 13.4252 -7.1250 0.0000 -0.0000 2.8242 56.2710 0.7811 -0.0000 -0.0000 0.0000 74.8127 24.8099 -3.2616 -65.3575 57.5763 -38.8326 0.0000 -0.0000 -23.4139 -35.0461 33.5020 -21.1641 7.1250 -0.0000 -0.0000 -1.4133 8.9663 -1.6167
0.00 0.00 0.00 22.8247 57.8847 33.0291 0.0000 0.0000 0.0000 -14.6724 7.9287 7.9318 0.9705 6.2718 17.5751 -0.2725 -9.3730 1.5758 4.2584 -12.4966 -37.5120 0.0000 0.0000 0.0000 6.3981 10.1395 -60.7662 -23.1417 -19.7617 99.2208 -0.8632 0.6828 -17.3428 -0.3495 3.7985 -10.5103 -14.0479 -1.9832 15.5543 -1.4232 -4.2277 7.1127 6.9775 -2.2982 -0.0266 -14.1304 -7.2529 -5.2371 25.1273 -6.5354 -16.8953 10.4603 -3.3680 -2.3526 0.0000 -0.0000 0.0000 -83.4620 -21.2820 39.4157 58.2293 -55.8193 -32.8720 -0.0000 0.0000 -11.5764 35.8686 17.9020 12.5307 -7.1250 0.0000 -0.0000 8.0442 51.5384 1.3025 0.0000 -0.0000 0.0000 80.3430 25.1682 4.2009 -98.2709 59.7399 -67.1565 0.0000 -0.0000 -23.7460 -34.1681 32.1207 -19.8452 7.1250 -0.0000 -0.0000 -1.2644 7.2023 -1.4133
0.00 0.00 0.00 15.7527 54.2845 28.2669 0.0000 0.0000 0.0000 -12.6791 11.5990 28.3747 0.0000 -0.0000 -0.0000 -0.1393 12.3999 6.6758 3.3213 -11.1979 -32.9501 0.0000 0.0000 0.0000 2.0374 15.4807 -60.6633 -11.8947 -18.3458 65.6547 -0.8215 1.0708 -16.7984 -0.7589 5.5634 -15.5228 -9.5033 -3.8145 12.2493 0.5502 -5.8163 6.2286 6.5126 -3.0904 0.7925 -9.7589 -2.7183 -9.2506 13.8260 -1.6329 -12.7128 5.8609 -0.5650 -1.9579 0.0000 -0.0000 0.0000 -79.0147 -6.5510 42.3357 61.3108 -56.6492 -35.4339 -0.0000 0.0000 -17.0310 34.7881 14.8220 10.0773 -7.1250 0.0000 -0.0000 7.0135 47.7150 0.4720 0.0000 -0.0000 0.0000 85.2148 25.1684 22.8907 -129.8930 53.0386 -93.7403 0.0000 -0.0000 -7.7509 -28.5736 28.7878 -14.6960 7.1250 -0.0000 -0.0000 1.2181 2.0473 1.2611
0.00 0.00 0.00 14.0149 51.1001 26.6105 0.0000 0.0000 0.0000 -15.7540 12.0422 29.2050 0.8932 6.0238 16.8536 0.0419 7.3759 6.0678 2.8443 -10.4387 -30.4094 0.0000 0.0000 0.0000 1.2426 13.8648 -57.6860 -5.8662 -14.2975 44.4425 -0.2012 1.9363 -8.0201 -2.3263 9.5151 -27.4203 -8.6410 -5.0526 11.0448 2.1295 -7.2765 6.1696 7.6769 -3.8965 1.7533 -7.5270 1.5876 -8.5467 7.3491 3.5115 -13.3358 3.4810 2.0196 -2.8296 -0.0000 0.0000 0.0000 -81.7430 5.9086 45.0281 47.6804 -52.0160 -24.3336 -0.0000 0.0000 -20.3034 31.0354 17.5082 10.2604 -7.1250 0.0000 -0.0000 3.0775 50.1665 0.3922 -0.0000 0.0000 0.0000 84.1288 32.5991 47.5804 -136.5299 49.9966 -98.9398 0.0000 0.0000 15.0443 -17.8476 23.1344 -7.2098 7.1250 -0.0000 -0.0000 6.9808 -5.9577 6.2663
0.00 0.00 0.00 14.1724 48.2327 24.9414 0.0000 0.0000 0.0000 -17.9836 14.1371 24.5708 4.1790 12.3948 37.1433 0.0788 1.1932 5.0174 2.9863 -10.6728 -31.1842 0.0000 0.0000 0.0000 1.6753 12.3486 -57.5419 -6.6364 -15.0179 47.4855 -0.0242 2.1509 -2.9417 -0.4927 4.5006 -12.4894 -8.9684 -4.4386 11.3510 1.9402 -6.5037 6.5451 7.6300 -3.5322 1.8547 -6.3048 2.7798 -8.4478 5.5766 4.8063 -12.0752 2.9499 2.6554 -2.7802 0.0000 0.0000 0.0000 -82.6102 10.5383 49.2139 37.0688 -46.2341 -16.2897 -0.0000 0.0000 -22.4677 26.4144 21.3281 10.2406 -7.1250 0.0000 -0.0000 -2.3940 53.5195 -0.5018 0.0000 0.0000 0.0000 84.1599 37.7221 60.5721 -133.4981 51.4834 -96.5919 0.0000 0.0000 20.2064 -15.3860 21.7274 -5.8167 7.1250 -0.0000 -0.0000 8.4402 -7.7231 7.3112
0.00 0.00 0.00 12.0244 45.5368 21.2100 0.0000 0.0000 0.0000 -17.8139 16.9612 18.2423 9.9477 17.3803 59.3133 0.0148 1.3274 2.2153 2.3185 -9.5002 -27.3730 0.0000 0.0000 0.0000 3.4901 13.1166 -55.5863 -9.4749 -17.1038 57.7184 -0.3280 4.9924 -10.2518 -0.0270 1.0615 -2.9179 -8.5856 -3.1055 12.8110 2.4709 -4.8034 6.8785 7.9841 -2.6546 1.0973 -6.2903 3.2674 -8.1955 5.0072 5.3603 -11.2628 2.7430 2.9272 -2.5624 -0.0000 0.0000 0.0000 -85.0137 13.0155 54.0520 27.1053 -38.2795 -9.5643 -0.0000 0.0000 -20.7413 22.8677 26.1162 10.5173 -7.1250 0.0000 -0.0000 -7.8878 57.8215 -2.4857 -0.0000 0.0000 0.0000 84.1680 41.1570 70.7159 -124.9211 54.8492 -89.7195 0.0000 0.0000 23.8486 -16.4670 20.9542 -6.0342 7.1250 -0.0000 -0.0000 7.7156 -8.3720 6.5715
0.00 0.00 0.00 4.0221 44.8978 13.8169 0.0000 0.0000 0.0000 -11.5147 18.2741 11.1145 16.5480 19.7119 79.8604 -0.0048 1.3202 0.0286 0.8517 -5.8859 -16.4538 0.0000 0.0000 0.0000 10.7071 13.1717 -49.1553 -10.5989 -17.7331 61.4719 -0.9482 5.2487 -17.3933 -0.2926 3.4782 -9.6131 -2.5137 -2.1840 13.9595 3.4829 -2.9060 7.5717 5.4544 -1.5210 0.4971 -5.7305 3.1521 -8.6616 5.4615 5.2089 -10.6717 2.8058 2.8283 -2.2672 0.0000 0.0000 0.0000 -86.2896 13.4414 57.7456 20.2446 -30.9359 -5.6566 -0.0000 0.0000 -17.7276 18.6539 31.1913 9.9170 -7.1250 0.0000 -0.0000 -15.5900 61.8885 -6.4914 0.0000 0.0000 0.0000 87.4825 41.6805 76.6675 -106.7987 58.9064 -74.4947 0.0000 0.0000 24.5639 -17.2558 20.4971 -6.2075 7.1250 -0.0000 -0.0000 7.1877 -8.7381 6.0615
